<svg width="105" height="116" viewBox="0 0 105 116" fill="none" xmlns="http://www.w3.org/2000/svg">
<g id="Group">
<path id="Vector" fill-rule="evenodd" clip-rule="evenodd" d="M98.4346 65.5992L100.257 60.7668L84.1282 56.8626L81.703 61.7094L43.816 53.676L39.9346 64.0224L21.1726 59.3052L30.463 100.024L79.081 115.5L104.677 67.1388L98.4346 65.5992Z" fill="#27A376"/>
<path id="Vector_2" fill-rule="evenodd" clip-rule="evenodd" d="M45.325 27.3306L42.2434 34.482C42.2434 34.482 52.4998 32.9448 58.3084 34.1496C67.6852 36.0948 61.4632 46.353 61.4632 46.353L55.5232 45.735L61.2106 62.475L77.3602 49.29L70.8724 48.1722C70.8724 48.1722 76.9972 39.4122 70.2412 31.7412C62.6104 23.0754 45.325 27.3306 45.325 27.3306Z" fill="#FFD023"/>
<path id="Vector_3" fill-rule="evenodd" clip-rule="evenodd" d="M97.812 12.2598L83.2098 8.45999C83.2098 8.45999 73.6518 15.8682 78.9714 29.6118L92.4678 32.4558C92.4678 32.4558 86.7192 18.8598 97.812 12.2598Z" fill="white"/>
<path id="Vector_4" fill-rule="evenodd" clip-rule="evenodd" d="M0.322754 67.785L12.5664 63.3168C12.5664 63.3168 18.03 74.3706 20.82 78.84L10.3062 87.0336C10.3062 87.0336 5.65435 81.36 0.322754 67.785Z" fill="white"/>
<path id="Vector_5" fill-rule="evenodd" clip-rule="evenodd" d="M25.7675 25.5684L25.5779 43.5C25.5779 43.5 4.1489 51.4506 1.6379 52.644C1.6379 52.644 -0.141097 38.2068 0.437903 33.045C0.437903 33.0468 14.9855 27.5094 25.7675 25.5684Z" fill="white"/>
<path id="Vector_6" d="M50.587 12.4692C50.587 12.4692 37.6048 20.2692 36.3268 21.213C36.3268 21.213 30.52 11.541 29.353 8.39399C29.353 8.39399 38.3326 2.86739 44.7778 0.73259L50.587 12.4692Z" fill="white"/>
<path id="Vector_7" d="M50.8565 12.336L45.0467 0.599995C45.0153 0.534537 44.9608 0.482916 44.8938 0.454933C44.8268 0.42695 44.7518 0.424552 44.6831 0.448195C38.2799 2.5692 29.2859 8.08259 29.1959 8.13839C29.1368 8.17475 29.092 8.23051 29.0694 8.29616C29.0467 8.36181 29.0476 8.43329 29.0717 8.49839C30.2351 11.6352 35.8319 20.9718 36.0695 21.3678C36.091 21.4037 36.1198 21.4347 36.154 21.4587C36.1882 21.4828 36.227 21.4995 36.2681 21.5077C36.3091 21.5159 36.3514 21.5154 36.3922 21.5063C36.433 21.4972 36.4715 21.4797 36.5051 21.4548C37.7567 20.532 50.6123 12.8046 50.7419 12.7266C50.8066 12.6878 50.8544 12.6261 50.8756 12.5537C50.8969 12.4813 50.89 12.4036 50.8565 12.336ZM36.4199 20.784C35.4929 19.2276 30.9179 11.5002 29.7233 8.51999C31.1033 7.6866 38.8571 3.069 44.6249 1.101L50.1959 12.3546C48.4697 13.3926 38.4899 19.4016 36.4199 20.784Z" fill="#111827"/>
<path id="Vector_8" fill-rule="evenodd" clip-rule="evenodd" d="M2.59311 50.334C2.59311 50.334 1.6931 37.554 1.98771 34.152C1.98771 34.152 17.1389 29.139 24.2423 27.3498V42.1998L2.59311 50.334Z" fill="#CEEFDF"/>
<path id="Vector_9" fill-rule="evenodd" clip-rule="evenodd" d="M36.8004 18.435C36.8004 18.435 32.3946 10.854 31.5708 8.78699C31.5708 8.78699 39.9108 4.42199 44.0076 2.71019L48.5076 11.6052L36.8004 18.435Z" fill="#CEEFDF"/>
<path id="Vector_10" fill-rule="evenodd" clip-rule="evenodd" d="M2.34351 46.4556L7.13511 39.1062L13.1087 43.3242L19.2479 35.4L24.2879 41.1036L24.2399 42.1998L2.59311 50.334L2.34351 46.4556Z" fill="#55C790"/>
<path id="Vector_11" fill-rule="evenodd" clip-rule="evenodd" d="M36.8003 18.435L35.3921 15.9792L36.5081 11.2614L41.7197 13.1694L43.2161 8.1102L48.0503 10.7034L48.5063 11.6034L36.8003 18.435Z" fill="#55C790"/>
<path id="Vector_12" fill-rule="evenodd" clip-rule="evenodd" d="M6.74206 34.5732C7.15337 34.6132 7.53508 34.8048 7.8128 35.1109C8.09052 35.4169 8.24437 35.8153 8.24437 36.2286C8.24437 36.6419 8.09052 37.0403 7.8128 37.3463C7.53508 37.6523 7.15337 37.844 6.74206 37.884C6.33074 37.844 5.94904 37.6523 5.67132 37.3463C5.39359 37.0403 5.23975 36.6419 5.23975 36.2286C5.23975 35.8153 5.39359 35.4169 5.67132 35.1109C5.94904 34.8048 6.33074 34.6132 6.74206 34.5732Z" fill="#27A376"/>
<path id="Vector_13" fill-rule="evenodd" clip-rule="evenodd" d="M34.7939 8.61179C35.0962 8.59678 35.3964 8.66973 35.6582 8.82179C35.9199 8.97385 36.132 9.19851 36.2687 9.46859C36.5417 10.0164 36.3239 10.5216 35.7833 10.5966C35.481 10.6115 35.1808 10.5384 34.9192 10.3863C34.6575 10.2341 34.4456 10.0093 34.3091 9.73919C34.0361 9.19139 34.2533 8.68619 34.7939 8.61179Z" fill="#27A376"/>
<path id="Vector_14" d="M31.6656 49.344L35.838 49.6926C35.077 52.0695 35.1567 54.6358 36.0636 56.961L32.7264 57.96C32.7264 57.96 30.7092 54.6906 31.6656 49.344Z" fill="#E7F7EF"/>
<path id="Vector_15" d="M4.29281 10.7034C3.71596 12.0143 3.23978 13.3672 2.86841 14.7504L8.80061 17.6826C9.3936 16.1777 10.1021 14.721 10.9198 13.3254L4.29281 10.7034Z" fill="#E7F7EF"/>
<path id="Vector_16" d="M94.5774 48.6672C94.5774 48.6672 96.1212 46.3512 97.8582 43.635L101.788 44.9658C100.847 46.6571 99.8027 48.2886 98.6604 49.851L94.5774 48.6672Z" fill="#E7F7EF"/>
<path id="Vector_17" d="M76.1998 73.0422C76.1951 72.9793 76.1708 72.9195 76.1302 72.8712C76.0895 72.823 76.0348 72.7887 75.9736 72.7734L21.2458 59.0136C21.1958 59.001 21.1434 59.0014 21.0937 59.0149C21.0439 59.0285 20.9985 59.0546 20.9618 59.0907C20.925 59.1269 20.8983 59.172 20.884 59.2215C20.8698 59.271 20.8685 59.3234 20.8804 59.3736L30.1708 100.093C30.1824 100.144 30.207 100.191 30.2423 100.229C30.2775 100.268 30.3221 100.296 30.3718 100.312C80.8756 116.4 79.0078 115.8 79.0798 115.8C79.1211 115.8 79.162 115.792 79.2 115.775C79.2379 115.759 79.272 115.735 79.3002 115.704C79.3283 115.674 79.3499 115.638 79.3637 115.599C79.3773 115.56 79.3829 115.519 79.3798 115.478L76.1998 73.0422ZM30.7198 99.7908L21.574 59.715L75.6148 73.3032L78.7486 115.079L30.7198 99.7908Z" fill="#111827"/>
<path id="Vector_18" d="M60.9251 62.571C60.9453 62.6304 60.9836 62.6819 61.0346 62.7184C61.0856 62.7549 61.1468 62.7745 61.2095 62.7744C61.3673 62.7744 60.9749 63.0564 66.4853 58.5552C66.547 58.5048 66.5862 58.432 66.5943 58.3527C66.6023 58.2735 66.5785 58.1942 66.5282 58.1325C66.4778 58.0707 66.405 58.0315 66.3257 58.0235C66.2464 58.0155 66.1672 58.0392 66.1055 58.0896L61.3547 61.9686L59.5799 56.742C59.5543 56.6666 59.4997 56.6044 59.4283 56.5692C59.3568 56.534 59.2743 56.5286 59.1989 56.5542C59.1235 56.5798 59.0613 56.6343 59.0261 56.7058C58.9908 56.7773 58.9855 56.8598 59.0111 56.9352L60.9251 62.571Z" fill="#111827"/>
<path id="Vector_19" d="M97.8875 11.97L83.2853 8.1672C83.2409 8.15528 83.1944 8.15385 83.1494 8.16301C83.1044 8.17218 83.0622 8.19169 83.0261 8.22C82.9283 8.2956 73.3529 15.9252 78.6917 29.7174C78.7097 29.764 78.739 29.8053 78.777 29.8377C78.8151 29.8701 78.8606 29.8925 78.9095 29.9028L92.4059 32.7474C92.4595 32.7586 92.5151 32.7549 92.5668 32.7368C92.6184 32.7186 92.6641 32.6867 92.6989 32.6444C92.7337 32.6021 92.7563 32.5511 92.7642 32.4969C92.7721 32.4428 92.765 32.3874 92.7437 32.337C92.6873 32.2038 87.2237 18.9102 97.9637 12.5178C98.0144 12.4876 98.0552 12.4431 98.0807 12.3899C98.1063 12.3367 98.1156 12.2771 98.1075 12.2186C98.0994 12.1601 98.0741 12.1053 98.035 12.0611C97.9959 12.0169 97.9445 11.9852 97.8875 11.97ZM91.9943 32.0478L79.1927 29.3478C74.4527 16.8804 82.2473 9.6678 83.2829 8.7852L97.0613 12.3732C87.8519 18.39 91.1009 29.5116 91.9943 32.0478Z" fill="#111827"/>
<path id="Vector_20" d="M83.5715 11.0526C94.4219 13.8156 93.7841 13.656 93.8459 13.656C93.9188 13.6556 93.989 13.6288 94.0435 13.5804C94.098 13.5321 94.1331 13.4655 94.1421 13.3932C94.1511 13.3209 94.1336 13.2478 94.0926 13.1875C94.0517 13.1272 93.9902 13.0839 93.9197 13.0656L83.7197 10.4712C83.6433 10.4536 83.5631 10.4667 83.4962 10.5075C83.4293 10.5484 83.3811 10.6138 83.3618 10.6898C83.3425 10.7657 83.3537 10.8462 83.393 10.914C83.4323 10.9818 83.4966 11.0316 83.5721 11.0526H83.5715Z" fill="#111827"/>
<path id="Vector_21" d="M92.3838 15.0552L81.9918 12.5244C81.9527 12.5124 81.9116 12.5086 81.871 12.5131C81.8304 12.5176 81.7911 12.5303 81.7556 12.5506C81.7201 12.5708 81.689 12.598 81.6644 12.6307C81.6398 12.6633 81.6222 12.7006 81.6125 12.7403C81.6028 12.7801 81.6014 12.8213 81.6083 12.8616C81.6151 12.9019 81.6301 12.9404 81.6524 12.9746C81.6747 13.0089 81.7037 13.0383 81.7377 13.0609C81.7717 13.0836 81.81 13.0991 81.8502 13.1064L92.2422 15.6372C92.2813 15.6492 92.3224 15.653 92.363 15.6485C92.4036 15.644 92.4429 15.6313 92.4784 15.611C92.514 15.5908 92.545 15.5636 92.5696 15.5309C92.5942 15.4983 92.6119 15.461 92.6215 15.4213C92.6312 15.3815 92.6326 15.3403 92.6258 15.3C92.6189 15.2597 92.6039 15.2212 92.5816 15.187C92.5594 15.1527 92.5303 15.1233 92.4963 15.1007C92.4623 15.078 92.424 15.0625 92.3838 15.0552Z" fill="#111827"/>
<path id="Vector_22" d="M90.9562 17.1102L80.5636 14.58C80.5246 14.5682 80.4836 14.5645 80.4431 14.569C80.4026 14.5736 80.3634 14.5864 80.328 14.6066C80.2926 14.6268 80.2617 14.654 80.2372 14.6866C80.2126 14.7191 80.195 14.7563 80.1853 14.7959C80.1757 14.8355 80.1742 14.8767 80.1809 14.9169C80.1877 14.9571 80.2026 14.9955 80.2246 15.0297C80.2467 15.064 80.2756 15.0934 80.3094 15.1161C80.3433 15.1389 80.3814 15.1545 80.4214 15.162L90.814 17.6928C90.8528 17.7035 90.8932 17.7064 90.9331 17.7012C90.973 17.696 91.0114 17.6829 91.046 17.6625C91.0807 17.6422 91.1109 17.6151 91.1349 17.5829C91.1589 17.5506 91.1762 17.5139 91.1857 17.4749C91.1953 17.4358 91.1969 17.3953 91.1904 17.3556C91.184 17.3159 91.1696 17.2779 91.1482 17.2439C91.1268 17.2099 91.0988 17.1806 91.0658 17.1576C91.0328 17.1346 90.9956 17.1185 90.9562 17.1102Z" fill="#111827"/>
<path id="Vector_23" d="M89.4701 21.9354L79.0799 19.4052C79.0409 19.3932 78.9997 19.3894 78.9591 19.3939C78.9185 19.3984 78.8792 19.4111 78.8437 19.4313C78.8082 19.4516 78.7772 19.4788 78.7526 19.5115C78.728 19.5441 78.7103 19.5814 78.7006 19.6211C78.691 19.6608 78.6895 19.7021 78.6964 19.7424C78.7033 19.7827 78.7183 19.8212 78.7405 19.8554C78.7628 19.8897 78.7918 19.9191 78.8258 19.9417C78.8598 19.9644 78.8981 19.9799 78.9383 19.9872L89.3303 22.518C89.3692 22.529 89.4098 22.5321 89.4499 22.527C89.4899 22.522 89.5285 22.5089 89.5634 22.4886C89.5983 22.4682 89.6287 22.4411 89.6528 22.4087C89.6769 22.3764 89.6943 22.3395 89.7038 22.3003C89.7133 22.261 89.7149 22.2203 89.7083 22.1805C89.7017 22.1407 89.6871 22.1026 89.6655 22.0685C89.6438 22.0344 89.6155 22.0051 89.5823 21.9822C89.549 21.9593 89.5115 21.9434 89.4719 21.9354H89.4701Z" fill="#111827"/>
<path id="Vector_24" d="M89.4701 24.4662L79.08 21.9354C79.0411 21.9244 79.0005 21.9213 78.9604 21.9263C78.9204 21.9314 78.8818 21.9445 78.8469 21.9648C78.812 21.9851 78.7816 22.0123 78.7575 22.0447C78.7334 22.077 78.716 22.1139 78.7065 22.1531C78.697 22.1923 78.6954 22.2331 78.702 22.2729C78.7086 22.3127 78.7232 22.3508 78.7448 22.3849C78.7665 22.4189 78.7948 22.4483 78.828 22.4712C78.8613 22.494 78.8988 22.51 78.9383 22.518L89.3303 25.0488C89.3692 25.0598 89.4098 25.0629 89.4499 25.0578C89.4899 25.0528 89.5285 25.0397 89.5634 25.0194C89.5983 24.999 89.6287 24.9719 89.6528 24.9395C89.6769 24.9072 89.6943 24.8703 89.7038 24.831C89.7133 24.7918 89.7149 24.7511 89.7083 24.7113C89.7017 24.6714 89.6871 24.6334 89.6655 24.5993C89.6438 24.5652 89.6155 24.5359 89.5823 24.513C89.549 24.4901 89.5115 24.4742 89.4719 24.4662H89.4701Z" fill="#111827"/>
<path id="Vector_25" d="M89.4701 27L79.08 24.4662C79.0411 24.4552 79.0005 24.4521 78.9604 24.4572C78.9204 24.4622 78.8818 24.4753 78.8469 24.4956C78.812 24.5159 78.7816 24.5431 78.7575 24.5755C78.7334 24.6078 78.716 24.6447 78.7065 24.6839C78.697 24.7232 78.6954 24.7639 78.702 24.8037C78.7086 24.8435 78.7232 24.8816 78.7448 24.9157C78.7665 24.9498 78.7948 24.9791 78.828 25.002C78.8613 25.0248 78.8988 25.0408 78.9383 25.0488L89.3303 27.5796C89.3692 27.5906 89.4098 27.5937 89.4499 27.5886C89.4899 27.5836 89.5285 27.5705 89.5634 27.5502C89.5983 27.5298 89.6287 27.5027 89.6528 27.4703C89.6769 27.438 89.6943 27.4011 89.7038 27.3619C89.7133 27.3226 89.7149 27.2819 89.7083 27.2421C89.7017 27.2023 89.6871 27.1642 89.6655 27.1301C89.6438 27.096 89.6155 27.0667 89.5823 27.0438C89.549 27.0209 89.5115 27.005 89.4719 26.997L89.4701 27Z" fill="#111827"/>
<path id="Vector_26" d="M1.76927 52.9164C4.23707 51.7422 25.4693 43.8624 25.6823 43.7826C25.7391 43.7615 25.7883 43.7237 25.8232 43.6741C25.8581 43.6245 25.8772 43.5655 25.8779 43.5048L26.0675 25.5714C26.0682 25.5271 26.059 25.4833 26.0408 25.4429C26.0225 25.4026 25.9956 25.3668 25.9618 25.3382C25.9281 25.3095 25.8885 25.2886 25.8457 25.2771C25.803 25.2655 25.7582 25.2636 25.7147 25.2714C15.0287 27.1956 0.476872 32.7114 0.334672 32.7642C0.283015 32.7837 0.237755 32.8172 0.203878 32.8608C0.17 32.9044 0.14882 32.9565 0.142672 33.0114C-0.431528 38.1498 1.27247 52.0914 1.34267 52.6806C1.34826 52.7279 1.36504 52.7732 1.39161 52.8127C1.41818 52.8523 1.45378 52.8849 1.49547 52.908C1.53716 52.931 1.58374 52.9438 1.63135 52.9453C1.67896 52.9467 1.72624 52.9368 1.76927 52.9164ZM0.719872 33.2622C2.36987 32.64 15.5009 27.78 25.4639 25.929L25.2803 43.2924C23.0939 44.1042 5.44907 50.6622 1.88987 52.2048C1.61267 49.86 0.259072 37.98 0.719872 33.2622Z" fill="#111827"/>
<path id="Vector_27" d="M2.69988 50.6148L24.3947 42.48C24.4521 42.4585 24.5016 42.42 24.5364 42.3696C24.5713 42.3192 24.5899 42.2593 24.5897 42.198C24.5897 42.0582 24.5999 43.8228 24.4943 27.348C24.4939 27.3025 24.4831 27.2577 24.4629 27.2169C24.4426 27.1762 24.4133 27.1406 24.3772 27.1128C24.3411 27.0851 24.2992 27.0659 24.2546 27.0567C24.2101 27.0476 24.164 27.0487 24.1199 27.06C17.0885 28.83 2.04468 33.8166 1.89348 33.867C1.83776 33.8854 1.78868 33.9198 1.75231 33.9659C1.71594 34.012 1.69389 34.0677 1.68888 34.1262C1.39428 37.512 2.25708 49.8324 2.29368 50.355C2.29689 50.4018 2.31101 50.4471 2.33491 50.4875C2.35882 50.5278 2.39184 50.562 2.43134 50.5872C2.47083 50.6125 2.5157 50.6281 2.56233 50.6329C2.60897 50.6377 2.65608 50.6315 2.69988 50.6148ZM2.86608 49.9116C2.82528 49.308 2.74608 48.0726 2.65188 46.536L7.21788 39.5316L12.9377 43.5696C13.0006 43.6142 13.0783 43.6328 13.1546 43.6217C13.2309 43.6105 13.3 43.5703 13.3475 43.5096L19.2647 35.8722L23.9879 41.2122V41.9922L2.86608 49.9116ZM2.27328 34.3716C4.00968 33.798 17.2283 29.4606 23.9393 27.7326V40.2984L19.4741 35.2026C19.4449 35.1696 19.4088 35.1434 19.3683 35.1259C19.3279 35.1085 19.284 35.1001 19.24 35.1015C19.196 35.1029 19.1527 35.1139 19.1135 35.1339C19.0742 35.1538 19.0398 35.1822 19.0127 35.217L13.0475 42.9138L7.30788 38.862C7.27493 38.8386 7.23761 38.8222 7.19815 38.8136C7.15869 38.805 7.11791 38.8045 7.07824 38.8121C7.03857 38.8196 7.00084 38.8351 6.96731 38.8576C6.93377 38.8801 6.90513 38.9092 6.88308 38.943L2.59068 45.5274C2.36868 41.6562 2.12808 36.5106 2.27148 34.374L2.27328 34.3716Z" fill="#111827"/>
<path id="Vector_28" d="M36.5399 18.5856C36.5663 18.631 36.6041 18.6687 36.6496 18.6949C36.695 18.7211 36.7466 18.7349 36.7991 18.735C36.9251 18.735 36.1283 19.1598 48.6563 11.8638C48.7224 11.8253 48.7712 11.7631 48.793 11.6899C48.8147 11.6166 48.8077 11.5378 48.7733 11.4696C39.7049 -6.48661 47.7485 9.42959 44.2733 2.57459C44.2391 2.5069 44.1806 2.45467 44.1095 2.4284C44.0383 2.40213 43.9599 2.40377 43.8899 2.43299C39.8327 4.13039 31.5149 8.47799 31.4315 8.51999C31.3657 8.55448 31.315 8.61218 31.2893 8.6819C31.2636 8.75163 31.2646 8.82842 31.2923 8.89739C32.1143 10.9614 36.3599 18.276 36.5399 18.5856ZM36.9077 18.0246C36.6995 17.6646 36.2921 16.956 35.7935 16.0794L36.6335 11.7042L41.4503 13.5642C41.4887 13.5791 41.5298 13.586 41.571 13.5843C41.6122 13.5827 41.6526 13.5725 41.6897 13.5546C41.7268 13.5366 41.7598 13.5112 41.7866 13.4799C41.8135 13.4487 41.8336 13.4122 41.8457 13.3728L43.3655 8.43359L47.9447 11.1546L48.1127 11.487L36.9077 18.0246ZM43.8659 3.09539L47.4389 10.1586L43.3433 7.72439C43.3043 7.70111 43.2605 7.68699 43.2152 7.68311C43.17 7.67923 43.1244 7.68567 43.082 7.70197C43.0396 7.71826 43.0014 7.74398 42.9704 7.77717C42.9394 7.81037 42.9163 7.85017 42.9029 7.89359L41.3651 12.8892L36.5129 11.0142C36.4719 10.9984 36.4279 10.9918 36.3841 10.9948C36.3403 10.9979 36.2977 11.0106 36.2593 11.0319C36.2209 11.0533 36.1876 11.0828 36.1619 11.1184C36.1361 11.154 36.1185 11.1948 36.1103 11.238L35.3399 15.273C34.0961 13.0716 32.5373 10.248 31.9565 8.92559C33.3293 8.20979 40.1543 4.67999 43.8659 3.09539Z" fill="#111827"/>
<path id="Vector_29" d="M6.74206 38.1834C7.23348 38.1439 7.69201 37.9208 8.02637 37.5585C8.36073 37.1962 8.54639 36.7213 8.54639 36.2283C8.54639 35.7353 8.36073 35.2604 8.02637 34.8981C7.69201 34.5358 7.23348 34.3127 6.74206 34.2732C6.25064 34.3127 5.79211 34.5358 5.45776 34.8981C5.1234 35.2604 4.93774 35.7353 4.93774 36.2283C4.93774 36.7213 5.1234 37.1962 5.45776 37.5585C5.79211 37.9208 6.25064 38.1439 6.74206 38.1834ZM6.74206 34.8732C7.07411 34.9122 7.38029 35.0717 7.60249 35.3215C7.82468 35.5713 7.94743 35.894 7.94743 36.2283C7.94743 36.5626 7.82468 36.8853 7.60249 37.1351C7.38029 37.3849 7.07411 37.5444 6.74206 37.5834C6.41002 37.5444 6.10384 37.3849 5.88164 37.1351C5.65945 36.8853 5.5367 36.5626 5.5367 36.2283C5.5367 35.894 5.65945 35.5713 5.88164 35.3215C6.10384 35.0717 6.41002 34.9122 6.74206 34.8732Z" fill="#111827"/>
<path id="Vector_30" d="M36.5754 10.395C37.0638 9.46919 35.8884 8.15879 34.7526 8.31419C34.582 8.33551 34.4198 8.40011 34.2812 8.50185C34.1427 8.60359 34.0325 8.73908 33.9611 8.89543C33.8897 9.05179 33.8595 9.22381 33.8734 9.39512C33.8873 9.56644 33.9448 9.73136 34.0404 9.87419C34.5708 10.9374 36.1008 11.292 36.5754 10.395ZM34.5354 9.09359C34.74 8.70419 35.6676 8.93099 36.0024 9.60299C36.1662 9.92999 36.1092 10.2486 35.745 10.2996C35.049 10.3974 34.299 9.53999 34.533 9.09359H34.5354Z" fill="#111827"/>
<path id="Vector_31" d="M12.4631 63.0348L0.219525 67.503C0.181972 67.5167 0.147541 67.5378 0.118253 67.565C0.0889654 67.5922 0.0654131 67.625 0.0489791 67.6615C0.0325451 67.6979 0.0235612 67.7373 0.0225558 67.7772C0.0215505 67.8172 0.0285435 67.857 0.0431243 67.8942C5.33092 81.3582 10.0277 87.1662 10.0745 87.2238C10.1242 87.2843 10.1955 87.323 10.2733 87.3316C10.3511 87.3403 10.4292 87.3181 10.4909 87.27L21.0065 79.0758C21.0651 79.0301 21.1046 78.9643 21.1175 78.8912C21.1303 78.818 21.1156 78.7427 21.0761 78.6798C18.3239 74.2758 12.8897 63.2946 12.8351 63.1836C12.8024 63.1173 12.7463 63.0655 12.6776 63.038C12.6089 63.0105 12.5326 63.0094 12.4631 63.0348ZM20.4251 78.768L10.3589 86.6118C9.46312 85.4286 5.33512 79.6518 0.714524 67.9608L12.4145 63.6906C13.2191 65.3052 17.8529 74.583 20.4251 78.768Z" fill="#111827"/>
<path id="Vector_32" d="M12.2225 66.0552L3.06651 69.9222C2.99315 69.9531 2.93506 70.0118 2.90501 70.0855C2.87497 70.1592 2.87544 70.2418 2.90631 70.3152C2.93718 70.3886 2.99593 70.4466 3.06963 70.4767C3.14333 70.5067 3.22595 70.5063 3.29931 70.4754L12.4559 66.6084C12.5293 66.5774 12.5873 66.5186 12.6173 66.4449C12.6473 66.3711 12.6468 66.2885 12.6158 66.2151C12.5849 66.1417 12.526 66.0837 12.4523 66.0537C12.3785 66.0237 12.2959 66.0242 12.2225 66.0552Z" fill="#111827"/>
<path id="Vector_33" d="M3.90898 72.6216C3.92595 72.6572 3.94976 72.6891 3.97906 72.7155C4.00835 72.7418 4.04256 72.7622 4.07973 72.7753C4.1169 72.7885 4.1563 72.7942 4.19567 72.7921C4.23504 72.79 4.27361 72.7802 4.30918 72.7632L13.1742 68.5356C13.2401 68.4981 13.2894 68.437 13.3121 68.3646C13.3348 68.2922 13.3292 68.2139 13.2965 68.1455C13.2638 68.077 13.2064 68.0235 13.1359 67.9957C13.0653 67.9679 12.9868 67.9679 12.9162 67.9956L4.05058 72.222C3.97886 72.2563 3.92366 72.3176 3.89711 72.3925C3.87056 72.4674 3.87483 72.5498 3.90898 72.6216Z" fill="#111827"/>
<path id="Vector_34" d="M4.91154 74.8236C4.94591 74.8952 5.00728 74.9503 5.08219 74.9767C5.1571 75.0032 5.23944 74.9988 5.31114 74.9646L14.3399 70.65C14.4064 70.6127 14.4561 70.5515 14.4791 70.4789C14.502 70.4062 14.4965 70.3276 14.4636 70.2589C14.4307 70.1902 14.3729 70.1365 14.3019 70.1089C14.2309 70.0812 14.1521 70.0816 14.0813 70.11L5.05134 74.4252C4.98024 74.4598 4.92567 74.521 4.89949 74.5957C4.87331 74.6703 4.87764 74.7522 4.91154 74.8236Z" fill="#111827"/>
<path id="Vector_35" d="M6.74264 78.3042C6.78069 78.374 6.84491 78.4259 6.92119 78.4484C6.99748 78.4709 7.07957 78.4622 7.14944 78.4242L15.7426 73.74C15.8104 73.7009 15.8602 73.6368 15.8814 73.5615C15.9026 73.4861 15.8935 73.4055 15.8561 73.3368C15.8187 73.268 15.7559 73.2166 15.6811 73.1936C15.6063 73.1705 15.5255 73.1775 15.4558 73.2132L6.86204 77.9004C6.7931 77.9385 6.74193 78.0023 6.71959 78.0778C6.69725 78.1534 6.70553 78.2347 6.74264 78.3042Z" fill="#111827"/>
<path id="Vector_36" d="M8.05913 80.7552C8.08011 80.7886 8.10746 80.8175 8.13963 80.8403C8.1718 80.8631 8.20815 80.8794 8.2466 80.8881C8.28505 80.8969 8.32485 80.898 8.36372 80.8913C8.40259 80.8847 8.43977 80.8704 8.47313 80.8494L17.0591 75.4296C17.1264 75.3871 17.1741 75.3196 17.1917 75.242C17.2092 75.1643 17.1952 75.0829 17.1527 75.0156C17.1102 74.9483 17.0428 74.9006 16.9651 74.8831C16.8875 74.8655 16.806 74.8795 16.7387 74.922L8.15273 80.34C8.11923 80.361 8.09021 80.3885 8.06735 80.4208C8.0445 80.4531 8.02825 80.4895 8.01955 80.5281C8.01085 80.5667 8.00987 80.6067 8.01666 80.6456C8.02346 80.6846 8.03789 80.7218 8.05913 80.7552Z" fill="#111827"/>
<path id="Vector_37" d="M9.44324 82.5954C9.48551 82.6628 9.55279 82.7106 9.63031 82.7284C9.70783 82.7461 9.78924 82.7324 9.85664 82.6902L18.3388 77.3832C18.374 77.3632 18.4047 77.3362 18.4292 77.3041C18.4536 77.2719 18.4713 77.235 18.4812 77.1958C18.4911 77.1566 18.4929 77.1158 18.4866 77.0759C18.4804 77.0359 18.4661 76.9977 18.4446 76.9634C18.4232 76.9291 18.395 76.8995 18.3618 76.8764C18.3287 76.8533 18.2912 76.8371 18.2516 76.8289C18.212 76.8206 18.1711 76.8204 18.1315 76.8284C18.0918 76.8363 18.0542 76.8521 18.0208 76.875L9.53984 82.1814C9.50625 82.2022 9.4771 82.2294 9.45405 82.2615C9.43101 82.2935 9.41453 82.3299 9.40555 82.3683C9.39658 82.4068 9.39529 82.4466 9.40175 82.4856C9.40822 82.5246 9.42232 82.5619 9.44324 82.5954Z" fill="#111827"/>
<path id="Vector_38" d="M27.6785 103.913C27.671 103.862 27.6505 103.814 27.619 103.773C27.5875 103.733 27.546 103.701 27.4986 103.681C27.4512 103.661 27.3993 103.653 27.3481 103.659C27.297 103.665 27.2481 103.683 27.2063 103.714L22.5263 107.08C22.4616 107.127 22.418 107.197 22.4052 107.276C22.3923 107.354 22.4111 107.435 22.4576 107.499C22.5041 107.564 22.5743 107.608 22.6529 107.62C22.7315 107.633 22.812 107.614 22.8767 107.568L26.8775 104.691C26.2361 106.51 24.0377 111.326 18.6845 111.563C17.5231 111.649 16.3631 111.38 15.3581 110.792C14.3532 110.203 13.5507 109.324 13.0571 108.269C20.4563 107.513 19.5593 101.113 15.0797 101.384C12.1571 101.542 11.2139 104.845 12.1829 107.717C10.8668 107.76 9.54982 107.67 8.25171 107.449C5.25531 106.964 3.11091 105.649 1.87911 103.544C-0.820891 98.9286 1.69311 91.9494 1.71891 91.8798C1.74644 91.8051 1.74316 91.7225 1.7098 91.6502C1.67644 91.5779 1.61572 91.5218 1.54101 91.4943C1.4663 91.4668 1.38371 91.47 1.31141 91.5034C1.23912 91.5368 1.18304 91.5975 1.15551 91.6722C1.04631 91.9686 -1.48149 98.9832 1.36011 103.846C2.68671 106.115 4.97331 107.527 8.15631 108.041C9.56241 108.284 10.9905 108.378 12.4163 108.319C12.9097 109.481 13.7398 110.469 14.7998 111.156C15.8597 111.842 17.1009 112.196 18.3635 112.171C22.6397 112.171 25.7279 109.265 27.2813 105.317L27.8513 109.154C27.8642 109.231 27.907 109.301 27.9706 109.347C28.0342 109.394 28.1135 109.413 28.1914 109.402C28.2692 109.39 28.3394 109.348 28.3868 109.285C28.4342 109.223 28.455 109.144 28.4447 109.066L27.6785 103.913ZM15.3185 101.978C17.5949 101.978 18.6071 103.987 17.4563 105.626C16.6421 106.784 15.0017 107.486 12.8033 107.677C11.8589 105.101 12.6107 101.978 15.3191 101.978H15.3185Z" fill="#111827"/>
</g>
</svg>
